<svg width="440" height="156" viewBox="0 0 440 156" fill="none" xmlns="http://www.w3.org/2000/svg">
<g clip-path="url(#clip0_1_2)">
<path d="M2 4H437.916V144H2V4Z" stroke="url(#paint0_linear_1_2)" stroke-width="5"/>
<mask id="mask0_1_2" style="mask-type:luminance" maskUnits="userSpaceOnUse" x="19" y="41" width="74" height="60">
<path d="M19.9346 41.6667H92.5158V100.333H19.9346V41.6667Z" fill="white"/>
</mask>
<g mask="url(#mask0_1_2)">
<mask id="mask1_1_2" style="mask-type:luminance" maskUnits="userSpaceOnUse" x="19" y="42" width="75" height="59">
<path d="M42.3313 89.9792L40.3072 92.0677C40.0396 92.349 39.7267 92.4896 39.3784 92.4896C39.025 92.4896 38.7171 92.349 38.4446 92.0677L19.5711 72.5938C19.3036 72.3177 19.1673 71.9948 19.1673 71.6354C19.1673 71.2708 19.3036 70.9531 19.5711 70.6719L38.4446 51.1979C38.7171 50.9167 39.025 50.7813 39.3784 50.7813C39.7267 50.7813 40.0396 50.9167 40.3072 51.1979L42.3313 53.2865C42.6039 53.5677 42.7402 53.8854 42.7402 54.25C42.7402 54.6094 42.6039 54.9323 42.3313 55.2083L26.4158 71.6354L42.3313 88.0573C42.6039 88.3385 42.7402 88.6563 42.7402 89.0208C42.7402 89.3802 42.6039 89.7031 42.3313 89.9792ZM66.2727 45.3906L51.1648 99.3385C51.0538 99.7031 50.8468 99.974 50.5339 100.156C50.2259 100.339 49.9079 100.37 49.5849 100.26L47.0711 99.5521C46.7228 99.4375 46.4603 99.224 46.2837 98.901C46.107 98.5833 46.0717 98.2396 46.1827 97.8802L61.2906 43.9271C61.3966 43.5625 61.6086 43.2917 61.9165 43.1094C62.2294 42.9323 62.5424 42.8958 62.8705 43.0052L65.3792 43.7188C65.7326 43.8281 65.995 44.0417 66.1717 44.3646C66.3433 44.6875 66.3787 45.026 66.2727 45.3906ZM92.8792 72.5938L74.0058 92.0677C73.7382 92.349 73.4253 92.4896 73.077 92.4896C72.7237 92.4896 72.4157 92.349 72.1432 92.0677L70.119 89.9792C69.8464 89.7031 69.7152 89.3802 69.7152 89.0208C69.7152 88.6563 69.8464 88.3385 70.119 88.0573L86.0345 71.6354L70.119 55.2083C69.8464 54.9323 69.7152 54.6094 69.7152 54.25C69.7152 53.8854 69.8464 53.5677 70.119 53.2865L72.1432 51.1979C72.4157 50.9167 72.7237 50.7813 73.077 50.7813C73.4253 50.7813 73.7382 50.9167 74.0058 51.1979L92.8792 70.6719C93.1518 70.9531 93.2881 71.2708 93.2881 71.6354C93.2881 71.9948 93.1518 72.3177 92.8792 72.5938Z" fill="white"/>
</mask>
<g mask="url(#mask1_1_2)">
<path d="M19.9346 42.8958V100.37H92.5158V42.8958H19.9346Z" fill="url(#paint1_linear_1_2)" stroke="#6436C4"/>
</g>
</g>
<path d="M145.278 90.5339C144.117 91.9089 142.865 92.8985 141.523 93.4922C140.19 94.1016 138.58 94.4089 136.697 94.4089C134.203 94.4089 132.24 93.8672 130.801 92.7839C129.358 91.6902 128.424 89.836 127.995 87.2214L126.824 80.5547C126.268 77.3204 125.592 74.9402 124.784 73.4089C123.987 71.8672 122.669 71.0964 120.827 71.0964H116.627V86.4089C116.627 88.1068 116.738 89.3256 116.97 90.0756C117.213 90.8256 117.657 91.3412 118.303 91.6172C118.949 91.8829 120.004 92.0547 121.473 92.1381V93.4714C119.141 93.336 115.89 93.2631 111.721 93.2631C107.127 93.2631 103.735 93.336 101.545 93.4714V92.1381C102.958 92.0547 103.993 91.8829 104.654 91.6172C105.325 91.3412 105.775 90.8256 106.007 90.0756C106.249 89.3256 106.37 88.1068 106.37 86.4089V53.4089C106.37 51.7162 106.249 50.4922 106.007 49.7422C105.775 48.9922 105.325 48.487 104.654 48.2214C103.993 47.9454 102.958 47.7631 101.545 47.6797V46.3464C103.735 46.487 107.001 46.5547 111.337 46.5547L118.505 46.4714C119.363 46.4297 120.352 46.4089 121.473 46.4089C127.409 46.4089 131.871 47.4089 134.86 49.4089C137.848 51.4089 139.342 54.2735 139.342 57.9922C139.342 61.1485 138.221 63.9245 135.99 66.3256C133.754 68.7162 130.054 70.2214 124.885 70.8464C128.762 71.1954 131.639 72.0547 133.527 73.4297C135.425 74.8047 136.647 76.8672 137.202 79.6172L138.696 86.4922C139.044 88.2579 139.443 89.5027 139.887 90.2214C140.341 90.9297 140.977 91.2839 141.785 91.2839C142.31 91.2318 142.754 91.0912 143.118 90.8672C143.481 90.6485 143.895 90.2735 144.37 89.7422L145.278 90.5339ZM120.625 47.6797C119.464 47.6797 118.616 47.8412 118.081 48.1589C117.541 48.4662 117.162 49.0235 116.95 49.8256C116.733 50.6172 116.627 51.8152 116.627 53.4089V69.7839H119.414C122.937 69.7839 125.355 68.8204 126.662 66.8881C127.98 64.961 128.641 62.237 128.641 58.7214C128.641 55.086 128.015 52.336 126.763 50.4714C125.511 48.612 123.462 47.6797 120.625 47.6797Z" fill="url(#paint2_linear_1_2)"/>
<path d="M160.239 58.1172C165.175 58.1172 169.047 59.5756 171.848 62.4922C174.645 65.3985 176.048 70.0027 176.048 76.3047C176.048 82.5964 174.645 87.1902 171.848 90.0756C169.047 92.9662 165.175 94.4089 160.239 94.4089C155.337 94.4089 151.476 92.9662 148.649 90.0756C145.832 87.1902 144.429 82.5964 144.429 76.3047C144.429 70.0027 145.832 65.3985 148.649 62.4922C151.476 59.5756 155.337 58.1172 160.239 58.1172ZM160.239 59.4506C158.391 59.4506 156.917 60.8412 155.817 63.6172C154.726 66.3985 154.181 70.6277 154.181 76.3047C154.181 81.987 154.726 86.2006 155.817 88.9506C156.917 91.7006 158.391 93.0756 160.239 93.0756C162.137 93.0756 163.616 91.7162 164.681 88.9922C165.756 86.2579 166.296 82.0287 166.296 76.3047C166.296 70.586 165.741 66.3464 164.64 63.5964C163.55 60.836 162.081 59.4506 160.239 59.4506Z" fill="url(#paint3_linear_1_2)"/>
<path d="M200.241 58.1172C203.714 58.1172 206.525 59.5964 208.681 62.5547C210.831 65.5027 211.911 69.7735 211.911 75.3672C211.911 81.8985 210.528 86.7006 207.772 89.7839C205.026 92.8672 201.478 94.4089 197.132 94.4089C194.169 94.4089 191.761 93.6277 189.903 92.0756C188.354 91.9402 186.804 92.1172 185.259 92.6172C183.71 93.1068 182.483 93.7422 181.585 94.5339L180.615 93.9297C180.923 92.8204 181.08 91.5756 181.08 90.2006V49.4089C181.08 47.3672 180.762 45.8829 180.131 44.9506C179.51 44.0235 178.445 43.5547 176.941 43.5547V42.1589C178.273 42.2839 179.606 42.3464 180.939 42.3464C184.679 42.3464 187.824 42.0443 190.368 41.4297V64.4506C191.266 62.4089 192.574 60.8464 194.285 59.7631C196.006 58.6693 197.99 58.1172 200.241 58.1172ZM195.133 93.0131C197.5 93.0131 199.262 91.6381 200.423 88.8881C201.579 86.1277 202.159 81.9297 202.159 76.3047C202.159 70.8464 201.659 66.9297 200.665 64.5547C199.681 62.1797 198.267 60.9922 196.425 60.9922C195.052 60.9922 193.79 61.5131 192.649 62.5547C191.503 63.5964 190.741 65.0079 190.368 66.7839V91.2006C191.781 92.4089 193.366 93.0131 195.133 93.0131Z" fill="url(#paint4_linear_1_2)"/>
<path d="M222.356 41.8881C224.158 41.8881 225.587 42.3464 226.637 43.2631C227.687 44.1693 228.211 45.4193 228.211 47.0131C228.211 48.612 227.687 49.8672 226.637 50.7839C225.587 51.6902 224.158 52.1381 222.356 52.1381C220.549 52.1381 219.115 51.6902 218.055 50.7839C217.006 49.8672 216.481 48.612 216.481 47.0131C216.481 45.4193 217.006 44.1693 218.055 43.2631C219.115 42.3464 220.549 41.8881 222.356 41.8881ZM227.384 87.2839C227.384 89.1068 227.692 90.362 228.312 91.0547C228.943 91.737 230.014 92.0756 231.523 92.0756V93.4714C227.212 93.2943 224.355 93.2006 222.942 93.2006C221.609 93.2006 218.621 93.2943 213.977 93.4714V92.0756C215.522 92.0756 216.592 91.737 217.187 91.0547C217.793 90.362 218.096 89.1068 218.096 87.2839V66.3047C218.096 64.2631 217.793 62.7787 217.187 61.8464C216.592 60.9193 215.522 60.4506 213.977 60.4506V59.0547C215.35 59.1954 216.682 59.2631 217.975 59.2631C221.796 59.2631 224.93 58.9506 227.384 58.3256V87.2839Z" fill="url(#paint5_linear_1_2)"/>
<path d="M256.348 58.1172C259.619 58.1172 261.986 58.987 263.455 60.7214C264.182 61.5704 264.692 62.6589 264.989 63.9922C265.297 65.3151 265.454 67.1068 265.454 69.3672V87.2839C265.454 89.1068 265.762 90.362 266.383 91.0547C266.998 91.737 268.063 92.0756 269.573 92.0756V93.4714C265.277 93.2943 262.435 93.2006 261.052 93.2006C259.77 93.2006 256.979 93.2943 252.673 93.4714V92.0756C253.965 92.0756 254.864 91.737 255.379 91.0547C255.903 90.362 256.166 89.1068 256.166 87.2839V66.5756C256.166 64.7579 255.868 63.3829 255.278 62.4506C254.697 61.5235 253.662 61.0547 252.168 61.0547C250.401 61.0547 248.897 61.7995 247.645 63.2839C246.394 64.7735 245.768 66.6068 245.768 68.7839V87.2839C245.768 89.1068 246.02 90.362 246.535 91.0547C247.06 91.737 247.968 92.0756 249.261 92.0756V93.4714C245.303 93.2943 242.638 93.2006 241.265 93.2006C239.973 93.2006 237.005 93.2943 232.361 93.4714V92.0756C233.905 92.0756 234.976 91.737 235.571 91.0547C236.177 90.362 236.48 89.1068 236.48 87.2839V66.3047C236.48 64.2631 236.177 62.7787 235.571 61.8464C234.976 60.9193 233.905 60.4506 232.361 60.4506V59.0547C233.734 59.1954 235.066 59.2631 236.359 59.2631C240.18 59.2631 243.314 58.9506 245.768 58.3256V64.3256C247.706 60.1901 251.229 58.1172 256.348 58.1172Z" fill="url(#paint6_linear_1_2)"/>
<path d="M327.506 90.5339C326.345 91.9089 325.093 92.8985 323.751 93.4922C322.418 94.1016 320.808 94.4089 318.925 94.4089C316.431 94.4089 314.468 93.8672 313.029 92.7839C311.586 91.6902 310.652 89.836 310.223 87.2214L309.052 80.5547C308.496 77.3204 307.82 74.9402 307.012 73.4089C306.215 71.8672 304.897 71.0964 303.055 71.0964H298.855V86.4089C298.855 88.1068 298.966 89.3256 299.199 90.0756C299.441 90.8256 299.885 91.3412 300.531 91.6172C301.177 91.8829 302.232 92.0547 303.701 92.1381V93.4714C301.369 93.336 298.118 93.2631 293.949 93.2631C289.355 93.2631 285.963 93.336 283.773 93.4714V92.1381C285.186 92.0547 286.221 91.8829 286.882 91.6172C287.553 91.3412 288.003 90.8256 288.235 90.0756C288.477 89.3256 288.598 88.1068 288.598 86.4089V53.4089C288.598 51.7162 288.477 50.4922 288.235 49.7422C288.003 48.9922 287.553 48.487 286.882 48.2214C286.221 47.9454 285.186 47.7631 283.773 47.6797V46.3464C285.963 46.487 289.229 46.5547 293.565 46.5547L300.733 46.4714C301.591 46.4297 302.581 46.4089 303.701 46.4089C309.637 46.4089 314.099 47.4089 317.088 49.4089C320.076 51.4089 321.57 54.2735 321.57 57.9922C321.57 61.1485 320.449 63.9245 318.218 66.3256C315.982 68.7162 312.282 70.2214 307.113 70.8464C310.99 71.1954 313.867 72.0547 315.755 73.4297C317.653 74.8047 318.875 76.8672 319.43 79.6172L320.924 86.4922C321.272 88.2579 321.671 89.5027 322.115 90.2214C322.57 90.9297 323.206 91.2839 324.013 91.2839C324.538 91.2318 324.982 91.0912 325.346 90.8672C325.709 90.6485 326.123 90.2735 326.598 89.7422L327.506 90.5339ZM302.853 47.6797C301.692 47.6797 300.844 47.8412 300.309 48.1589C299.769 48.4662 299.39 49.0235 299.178 49.8256C298.961 50.6172 298.855 51.8152 298.855 53.4089V69.7839H301.642C305.165 69.7839 307.583 68.8204 308.89 66.8881C310.208 64.961 310.869 62.237 310.869 58.7214C310.869 55.086 310.243 52.336 308.991 50.4714C307.739 48.612 305.69 47.6797 302.853 47.6797Z" fill="url(#paint7_linear_1_2)"/>
<path d="M334.33 93.9297C331.584 93.9297 329.529 93.2006 328.171 91.7422C326.824 90.2735 326.152 88.3412 326.152 85.9506C326.152 83.9506 326.657 82.2995 327.667 80.9922C328.676 79.6901 329.898 78.6797 331.341 77.9714C332.78 77.2527 334.617 76.4922 336.854 75.7006C339.221 74.8568 340.952 74.0912 342.043 73.4089C343.143 72.7162 343.698 71.7735 343.698 70.5756V65.3881C343.698 63.5287 343.274 62.0756 342.426 61.0339C341.588 59.9818 340.291 59.4506 338.529 59.4506C336.47 59.4506 334.9 59.987 333.825 61.0547C335.021 61.5027 335.95 62.1693 336.611 63.0547C337.283 63.9454 337.621 64.987 337.621 66.1797C337.621 67.6954 337.121 68.8985 336.127 69.7839C335.142 70.6589 333.946 71.0964 332.533 71.0964C331.023 71.0964 329.857 70.612 329.04 69.6381C328.232 68.6693 327.828 67.4454 327.828 65.9714C327.828 64.737 328.116 63.6901 328.696 62.8256C329.272 61.9506 330.16 61.1381 331.362 60.3881C332.533 59.6797 333.966 59.1277 335.662 58.7214C337.358 58.3204 339.216 58.1172 341.235 58.1172C343.345 58.1172 345.177 58.3412 346.727 58.7839C348.272 59.2318 349.564 59.987 350.604 61.0547C351.542 62.0287 352.178 63.2318 352.502 64.6589C352.825 66.0756 352.986 68.0079 352.986 70.4506V88.5547C352.986 89.612 353.077 90.362 353.269 90.8047C353.471 91.2527 353.844 91.4714 354.399 91.4714C355.046 91.4714 355.818 91.0964 356.721 90.3464L357.368 91.4714C355.429 93.112 353.067 93.9297 350.281 93.9297C347.908 93.9297 346.247 93.4454 345.293 92.4714C344.349 91.5027 343.86 90.1954 343.819 88.5547C341.664 92.1381 338.499 93.9297 334.33 93.9297ZM339.297 89.6797C340.978 89.6797 342.446 88.7735 343.698 86.9506V73.3047C343.173 74.1954 342.073 75.1693 340.407 76.2214C338.721 77.336 337.449 78.4454 336.591 79.5547C335.728 80.6693 335.299 82.2631 335.299 84.3464C335.299 86.1693 335.662 87.5131 336.389 88.3881C337.126 89.2527 338.095 89.6797 339.297 89.6797Z" fill="url(#paint8_linear_1_2)"/>
<path d="M381.295 58.1172C384.566 58.1172 386.933 58.987 388.402 60.7214C389.129 61.5704 389.639 62.6589 389.937 63.9922C390.244 65.3151 390.401 67.1068 390.401 69.3672V87.2839C390.401 89.1068 390.709 90.362 391.33 91.0547C391.946 91.737 393.011 92.0756 394.52 92.0756V93.4714C390.224 93.2943 387.382 93.2006 385.999 93.2006C384.717 93.2006 381.926 93.2943 377.62 93.4714V92.0756C378.912 92.0756 379.811 91.737 380.326 91.0547C380.851 90.362 381.113 89.1068 381.113 87.2839V66.5756C381.113 64.7579 380.815 63.3829 380.225 62.4506C379.644 61.5235 378.609 61.0547 377.115 61.0547C375.349 61.0547 373.844 61.7995 372.593 63.2839C371.341 64.7735 370.715 66.6068 370.715 68.7839V87.2839C370.715 89.1068 370.967 90.362 371.482 91.0547C372.007 91.737 372.916 92.0756 374.208 92.0756V93.4714C370.25 93.2943 367.585 93.2006 366.212 93.2006C364.92 93.2006 361.952 93.2943 357.308 93.4714V92.0756C358.853 92.0756 359.923 91.737 360.518 91.0547C361.124 90.362 361.427 89.1068 361.427 87.2839V66.3047C361.427 64.2631 361.124 62.7787 360.518 61.8464C359.923 60.9193 358.853 60.4506 357.308 60.4506V59.0547C358.681 59.1954 360.014 59.2631 361.306 59.2631C365.127 59.2631 368.262 58.9506 370.715 58.3256V64.3256C372.653 60.1901 376.176 58.1172 381.295 58.1172Z" fill="url(#paint9_linear_1_2)"/>
<path d="M403.48 93.9297C400.734 93.9297 398.679 93.2006 397.322 91.7422C395.974 90.2735 395.302 88.3412 395.302 85.9506C395.302 83.9506 395.807 82.2995 396.817 80.9922C397.826 79.6901 399.048 78.6797 400.491 77.9714C401.93 77.2527 403.767 76.4922 406.004 75.7006C408.371 74.8568 410.102 74.0912 411.193 73.4089C412.293 72.7162 412.848 71.7735 412.848 70.5756V65.3881C412.848 63.5287 412.424 62.0756 411.576 61.0339C410.738 59.9818 409.441 59.4506 407.679 59.4506C405.62 59.4506 404.05 59.987 402.975 61.0547C404.171 61.5027 405.1 62.1693 405.761 63.0547C406.433 63.9454 406.771 64.987 406.771 66.1797C406.771 67.6954 406.271 68.8985 405.277 69.7839C404.292 70.6589 403.096 71.0964 401.683 71.0964C400.173 71.0964 399.007 70.612 398.19 69.6381C397.382 68.6693 396.978 67.4454 396.978 65.9714C396.978 64.737 397.266 63.6901 397.846 62.8256C398.422 61.9506 399.31 61.1381 400.512 60.3881C401.683 59.6797 403.116 59.1277 404.812 58.7214C406.508 58.3204 408.366 58.1172 410.385 58.1172C412.495 58.1172 414.327 58.3412 415.877 58.7839C417.422 59.2318 418.714 59.987 419.754 61.0547C420.692 62.0287 421.328 63.2318 421.652 64.6589C421.975 66.0756 422.136 68.0079 422.136 70.4506V88.5547C422.136 89.612 422.227 90.362 422.419 90.8047C422.621 91.2527 422.994 91.4714 423.549 91.4714C424.196 91.4714 424.968 91.0964 425.871 90.3464L426.518 91.4714C424.579 93.112 422.217 93.9297 419.431 93.9297C417.058 93.9297 415.397 93.4454 414.443 92.4714C413.499 91.5027 413.01 90.1954 412.969 88.5547C410.814 92.1381 407.649 93.9297 403.48 93.9297ZM408.447 89.6797C410.128 89.6797 411.596 88.7735 412.848 86.9506V73.3047C412.323 74.1954 411.223 75.1693 409.557 76.2214C407.871 77.336 406.599 78.4454 405.741 79.5547C404.878 80.6693 404.449 82.2631 404.449 84.3464C404.449 86.1693 404.812 87.5131 405.539 88.3881C406.276 89.2527 407.245 89.6797 408.447 89.6797Z" fill="url(#paint10_linear_1_2)"/>
<path d="M54.3348 127H390.983V160.042H54.3348V127Z" fill="url(#paint11_linear_1_2)"/>
<path d="M108.398 147.05H106.551L104.013 138.456L101.438 147.05H99.5726L96.0088 136.038H97.968L100.562 144.997L103.155 136.058L104.928 136.038L107.521 144.997L110.115 136.038H111.981L108.398 147.05Z" fill="#C3A6FE"/>
<path d="M129.273 137.707H123.433V140.681H128.676V142.35H123.433V145.381H129.46V147.05H121.623V136.038H129.273V137.707Z" fill="#C3A6FE"/>
<path d="M140.066 136.038H144.731C145.837 136.038 146.709 136.283 147.343 136.767C147.987 137.257 148.313 137.928 148.313 138.782C148.313 139.41 148.146 139.942 147.81 140.374C147.474 140.81 147.017 141.098 146.448 141.237C147.157 141.367 147.716 141.678 148.127 142.177C148.537 142.666 148.743 143.285 148.743 144.038C148.743 144.973 148.393 145.707 147.698 146.244C146.998 146.781 146.042 147.05 144.824 147.05H140.066V136.038ZM141.876 137.688V140.604H144.638C145.207 140.604 145.655 140.479 145.981 140.22C146.303 139.952 146.466 139.587 146.466 139.127C146.466 138.667 146.303 138.316 145.981 138.072C145.669 137.818 145.221 137.688 144.638 137.688H141.876ZM141.876 142.235V145.4H144.638C145.347 145.4 145.893 145.261 146.28 144.978C146.676 144.7 146.877 144.302 146.877 143.789C146.877 143.319 146.676 142.94 146.28 142.657C145.879 142.379 145.333 142.235 144.638 142.235H141.876Z" fill="#C3A6FE"/>
<path d="M171.633 136.038H176.036C177.641 136.038 178.966 136.556 180.011 137.592C181.056 138.628 181.578 139.947 181.578 141.544C181.578 143.146 181.046 144.46 179.992 145.496C178.947 146.532 177.608 147.05 175.98 147.05H171.633V136.038ZM173.443 137.707V145.381H176.074C177.128 145.381 178.005 145.026 178.705 144.307C179.4 143.592 179.749 142.676 179.749 141.563C179.749 140.451 179.386 139.53 178.667 138.801C177.944 138.072 177.053 137.707 175.999 137.707H173.443Z" fill="#C3A6FE"/>
<path d="M199.545 137.707H193.705V140.681H198.948V142.35H193.705V145.381H199.732V147.05H191.895V136.038H199.545V137.707Z" fill="#C3A6FE"/>
<path d="M215.115 147.05H213.249L208.976 136.038H210.936L214.238 144.997L217.559 136.038H219.444L215.115 147.05Z" fill="#C3A6FE"/>
<path d="M236.952 137.707H231.111V140.681H236.354V142.35H231.111V145.381H237.138V147.05H229.301V136.038H236.952V137.707Z" fill="#C3A6FE"/>
<path d="M249.555 145.362H254.201V147.05H247.745V136.038H249.555V145.362Z" fill="#C3A6FE"/>
<path d="M265.069 137.592C266.161 136.532 267.513 136 269.118 136C270.723 136 272.066 136.532 273.148 137.592C274.24 138.657 274.79 139.971 274.79 141.544C274.79 143.117 274.24 144.441 273.148 145.515C272.066 146.589 270.723 147.127 269.118 147.127C267.513 147.127 266.161 146.589 265.069 145.515C263.987 144.441 263.446 143.117 263.446 141.544C263.446 139.971 263.987 138.657 265.069 137.592ZM269.137 137.65C268.078 137.65 267.168 138.029 266.413 138.782C265.652 139.539 265.274 140.46 265.274 141.544C265.274 142.633 265.652 143.558 266.413 144.326C267.168 145.083 268.073 145.458 269.118 145.458C270.172 145.458 271.077 145.083 271.824 144.326C272.57 143.558 272.943 142.633 272.943 141.544C272.943 140.46 272.57 139.539 271.824 138.782C271.077 138.029 270.182 137.65 269.137 137.65Z" fill="#C3A6FE"/>
<path d="M285.12 136.038H289.393C290.736 136.038 291.772 136.364 292.509 137.017C293.255 137.669 293.629 138.599 293.629 139.798C293.629 141.055 293.255 142.024 292.509 142.714C291.772 143.395 290.736 143.731 289.393 143.731H286.93V147.05H285.12V136.038ZM286.93 137.707V142.062H289.318C291.044 142.062 291.912 141.323 291.912 139.837C291.912 138.417 291.044 137.707 289.318 137.707H286.93Z" fill="#C3A6FE"/>
<path d="M311.473 137.707H305.633V140.681H310.876V142.35H305.633V145.381H311.66V147.05H303.823V136.038H311.473V137.707Z" fill="#C3A6FE"/>
<path d="M329.077 147.05L327.118 143.712C327.006 143.726 326.838 143.731 326.614 143.731H324.076V147.05H322.267V136.038H326.614C327.981 136.038 329.044 136.364 329.805 137.017C330.56 137.669 330.943 138.599 330.943 139.798C330.943 140.681 330.747 141.429 330.364 142.043C329.977 142.647 329.431 143.088 328.722 143.367L331.111 147.05H329.077ZM324.076 142.062H326.614C328.354 142.062 329.226 141.323 329.226 139.837C329.226 138.417 328.354 137.707 326.614 137.707H324.076V142.062Z" fill="#C3A6FE"/>
</g>
<defs>
<linearGradient id="paint0_linear_1_2" x1="2" y1="74" x2="437.916" y2="74" gradientUnits="userSpaceOnUse">
<stop stop-color="#321275"/>
<stop offset="1" stop-color="#A07EE6"/>
</linearGradient>
<linearGradient id="paint1_linear_1_2" x1="56.2252" y1="42.8958" x2="56.2252" y2="100.37" gradientUnits="userSpaceOnUse">
<stop stop-color="#7F43F9"/>
<stop offset="1" stop-color="#45336A"/>
</linearGradient>
<linearGradient id="paint2_linear_1_2" x1="123.411" y1="46.3464" x2="123.411" y2="94.4089" gradientUnits="userSpaceOnUse">
<stop stop-color="#BDA2F3"/>
<stop offset="1" stop-color="#441B97"/>
</linearGradient>
<linearGradient id="paint3_linear_1_2" x1="160.239" y1="58.1172" x2="160.239" y2="94.4089" gradientUnits="userSpaceOnUse">
<stop stop-color="#BDA2F3"/>
<stop offset="1" stop-color="#441B97"/>
</linearGradient>
<linearGradient id="paint4_linear_1_2" x1="194.426" y1="41.4297" x2="194.426" y2="94.5339" gradientUnits="userSpaceOnUse">
<stop stop-color="#BDA2F3"/>
<stop offset="1" stop-color="#441B97"/>
</linearGradient>
<linearGradient id="paint5_linear_1_2" x1="222.75" y1="41.8881" x2="222.75" y2="93.4714" gradientUnits="userSpaceOnUse">
<stop stop-color="#BDA2F3"/>
<stop offset="1" stop-color="#441B97"/>
</linearGradient>
<linearGradient id="paint6_linear_1_2" x1="250.967" y1="58.1172" x2="250.967" y2="93.4714" gradientUnits="userSpaceOnUse">
<stop stop-color="#BDA2F3"/>
<stop offset="1" stop-color="#441B97"/>
</linearGradient>
<linearGradient id="paint7_linear_1_2" x1="305.639" y1="46.3464" x2="305.639" y2="94.4089" gradientUnits="userSpaceOnUse">
<stop stop-color="#BDA2F3"/>
<stop offset="1" stop-color="#441B97"/>
</linearGradient>
<linearGradient id="paint8_linear_1_2" x1="341.76" y1="58.1172" x2="341.76" y2="93.9297" gradientUnits="userSpaceOnUse">
<stop stop-color="#BDA2F3"/>
<stop offset="1" stop-color="#441B97"/>
</linearGradient>
<linearGradient id="paint9_linear_1_2" x1="375.914" y1="58.1172" x2="375.914" y2="93.4714" gradientUnits="userSpaceOnUse">
<stop stop-color="#BDA2F3"/>
<stop offset="1" stop-color="#441B97"/>
</linearGradient>
<linearGradient id="paint10_linear_1_2" x1="410.91" y1="58.1172" x2="410.91" y2="93.9297" gradientUnits="userSpaceOnUse">
<stop stop-color="#BDA2F3"/>
<stop offset="1" stop-color="#441B97"/>
</linearGradient>
<linearGradient id="paint11_linear_1_2" x1="54.3348" y1="143.521" x2="390.983" y2="143.521" gradientUnits="userSpaceOnUse">
<stop stop-color="#321275"/>
<stop offset="1" stop-color="#A479FD"/>
</linearGradient>
<clipPath id="clip0_1_2">
<rect width="440" height="156" fill="white"/>
</clipPath>
</defs>
</svg>
